<svg width="430" height="932" viewBox="0 0 430 932" fill="none" xmlns="http://www.w3.org/2000/svg">
<g opacity="0.1">
<path d="M-518.5 1073C-521.667 929.833 -442 620 -98 526C246 432 156.667 24.5 69 -167.5" stroke="#CA1313"/>
<path d="M-376.5 1161C-379.667 1017.83 -300 708 44 614C388 520 298.667 112.5 211 -79.5" stroke="#CA1313"/>
<path d="M-487.91 1115.5C-491.077 972.333 -411.41 662.5 -67.4104 568.5C276.59 474.5 187.256 67 99.5896 -125" stroke="#CA1313"/>
<path d="M-345.91 1203.5C-349.077 1060.33 -269.41 750.5 74.5896 656.5C418.59 562.5 329.256 155 241.59 -37" stroke="#CA1313"/>
<path d="M-92.9104 1400.5C-96.0771 1257.33 -16.4104 947.5 327.59 853.5C671.59 759.5 582.256 352 494.59 160" stroke="#CA1313"/>
<path d="M-579.91 1040.5C-583.077 897.333 -503.41 587.5 -159.41 493.5C184.59 399.5 95.2563 -8 7.5896 -200" stroke="#CA1313"/>
<path d="M-437.91 1128.5C-441.077 985.333 -361.41 675.5 -17.4104 581.5C326.59 487.5 237.256 80 149.59 -112" stroke="#CA1313"/>
<path d="M-8.9105 1077.5C-12.0772 934.333 67.5895 624.5 411.59 530.5C755.59 436.5 666.256 29 578.59 -163" stroke="#CA1313"/>
<path d="M125.09 1165.5C121.923 1022.33 201.59 712.5 545.59 618.5C889.59 524.5 800.256 117 712.59 -75" stroke="#CA1313"/>
<path d="M52.4999 1110C49.3332 966.833 129 657 473 563C817 469 727.667 61.5 640 -130.5" stroke="#CA1313"/>
<path d="M186.5 1198C183.333 1054.83 263 745 607 651C951 557 861.667 149.5 774 -42.5" stroke="#CA1313"/>
<path d="M83.0895 1152.5C79.9228 1009.33 159.59 699.5 503.59 605.5C847.59 511.5 758.256 104 670.59 -88" stroke="#CA1313"/>
</g>
</svg>
