<svg width="31" height="26" viewBox="0 0 31 26" fill="none" xmlns="http://www.w3.org/2000/svg">
<path d="M9 9.625C7.79188 9.625 6.8125 10.6044 6.8125 11.8125C6.8125 13.0206 7.79188 14 9 14C10.2081 14 11.1875 13.0206 11.1875 11.8125C11.1875 10.6044 10.2081 9.625 9 9.625Z" fill="#5b5b5b"/>
<path d="M16 9.625C14.7919 9.625 13.8125 10.6044 13.8125 11.8125C13.8125 13.0206 14.7919 14 16 14C17.2081 14 18.1875 13.0206 18.1875 11.8125C18.1875 10.6044 17.2081 9.625 16 9.625Z" fill="#5b5b5b"/>
<path d="M20.8125 11.8125C20.8125 10.6044 21.7919 9.625 23 9.625C24.2081 9.625 25.1875 10.6044 25.1875 11.8125C25.1875 13.0206 24.2081 14 23 14C21.7919 14 20.8125 13.0206 20.8125 11.8125Z" fill="#5b5b5b"/>
<path fill-rule="evenodd" clip-rule="evenodd" d="M23.1763 1.03739C18.4614 0.635311 13.722 0.611976 9.0034 0.967612L8.66524 0.993099C4.16546 1.33225 0.6875 5.0822 0.6875 9.59474V24.5C0.6875 24.9618 0.930165 25.3896 1.32651 25.6265C1.72285 25.8635 2.21456 25.8747 2.62132 25.6561L9.4652 21.9781C9.78355 21.8071 10.1393 21.7175 10.5007 21.7175H26.2094C28.1906 21.7175 29.8884 20.3011 30.2436 18.352C30.9633 14.4018 31.0201 10.3594 30.4118 6.39057L30.2325 5.221C29.9061 3.09168 28.1642 1.46276 26.0178 1.27972L23.1763 1.03739ZM9.20068 3.58519C13.7793 3.2401 18.3782 3.26274 22.9532 3.6529L25.7948 3.89522C26.7334 3.97527 27.4951 4.68758 27.6378 5.61872L27.8171 6.78829C28.3813 10.469 28.3286 14.218 27.6611 17.8815C27.5333 18.5828 26.9223 19.0925 26.2094 19.0925H10.5007C9.70563 19.0925 8.92293 19.2895 8.22257 19.6659L3.3125 22.3046V9.59474C3.3125 6.45542 5.73208 3.84661 8.86253 3.61067L9.20068 3.58519Z" fill="#5b5b5b"/>
</svg>
