<svg width="26" height="26" viewBox="0 0 26 26" fill="none" xmlns="http://www.w3.org/2000/svg">
<path d="M16.0729 1.0916C14.3921 -0.363865 11.608 -0.363867 9.92719 1.09159L1.71748 8.20057C1.24598 8.60885 0.929149 9.12499 0.806894 9.68398C-0.19015 14.2428 -0.263747 18.9098 0.589195 23.4891L0.891174 25.1104C0.986555 25.6225 1.51259 26 2.13075 26H7.86734C8.33979 26 8.72279 25.6789 8.72279 25.2828V15.2413H17.2773V25.2828C17.2773 25.6789 17.6603 26 18.1327 26H23.8692C24.4874 26 25.0134 25.6225 25.1088 25.1104L25.4108 23.4891C26.2637 18.9098 26.1902 14.2428 25.1931 9.68398C25.0709 9.12499 24.754 8.60885 24.2825 8.20057L16.0729 1.0916Z" fill="#5b5b5b"/>
</svg>
