<svg width="21" height="24" viewBox="0 0 21 24" fill="none" xmlns="http://www.w3.org/2000/svg">
<path d="M10.0607 0.312523C9.41187 0.312534 8.80407 0.629939 8.43329 1.16239L2.43812 9.77161C1.31233 11.3883 0.810561 13.3582 1.02575 15.3164L1.48676 19.5117C1.68377 21.3045 3.09118 22.7246 4.88214 22.9376L7.8813 23.2944C10.1716 23.5668 12.4937 23.3307 14.6823 22.6028C16.2141 22.0932 17.4411 20.9305 18.0323 19.4283L20.4528 13.277C20.5699 12.9795 20.6508 12.6689 20.6938 12.3521C21.0683 9.5936 18.5757 7.30834 15.86 7.92026L10.338 9.16454L11.9811 2.79077C12.3047 1.5356 11.3569 0.312501 10.0607 0.312523Z" fill="#CA1313"/>
</svg>
