<svg width="42" height="42" viewBox="0 0 42 42" fill="none" xmlns="http://www.w3.org/2000/svg">
<path d="M23.625 17.0625C23.625 16.3376 23.0374 15.75 22.3125 15.75H11.8125C11.0876 15.75 10.5 16.3376 10.5 17.0625C10.5 17.7874 11.0876 18.375 11.8125 18.375H22.3125C23.0374 18.375 23.625 17.7874 23.625 17.0625Z" fill="#5b5b5b"/>
<path d="M21.875 22.3125C21.875 21.5876 21.2874 21 20.5625 21H11.8125C11.0876 21 10.5 21.5876 10.5 22.3125C10.5 23.0374 11.0876 23.625 11.8125 23.625H20.5625C21.2874 23.625 21.875 23.0374 21.875 22.3125Z" fill="#5b5b5b"/>
<path d="M22.3125 26.25C23.0374 26.25 23.625 26.8376 23.625 27.5625C23.625 28.2874 23.0374 28.875 22.3125 28.875H11.8125C11.0876 28.875 10.5 28.2874 10.5 27.5625C10.5 26.8376 11.0876 26.25 11.8125 26.25H22.3125Z" fill="#5b5b5b"/>
<path fill-rule="evenodd" clip-rule="evenodd" d="M10.5 38.0625H33.25C35.9079 38.0625 38.0625 35.9079 38.0625 33.25V23.625C38.0625 22.9002 37.4749 22.3125 36.75 22.3125H31.0625V8.65061C31.0625 6.15965 28.2469 4.71071 26.22 6.15855L25.9136 6.37736C24.5478 7.35297 22.6976 7.34969 21.3254 6.3695C19.0436 4.73967 15.9564 4.73967 13.6746 6.3695C12.3024 7.34969 10.4522 7.35297 9.08637 6.37736L8.78004 6.15855C6.75307 4.71071 3.9375 6.15965 3.9375 8.65061V31.5C3.9375 35.1244 6.87563 38.0625 10.5 38.0625ZM15.2004 8.50555C16.5694 7.52765 18.4306 7.52765 19.7996 8.50555C22.0782 10.1331 25.1544 10.1455 27.4394 8.51341L27.7457 8.2946C28.0353 8.08776 28.4375 8.29475 28.4375 8.65061V33.25C28.4375 34.0377 28.6267 34.7812 28.9622 35.4375H10.5C8.32538 35.4375 6.5625 33.6746 6.5625 31.5V8.65061C6.5625 8.29475 6.96472 8.08776 7.25429 8.2946L7.56062 8.51341C9.84559 10.1455 12.9218 10.1331 15.2004 8.50555ZM31.0625 33.25V24.9375H35.4375V33.25C35.4375 34.4581 34.4581 35.4375 33.25 35.4375C32.0419 35.4375 31.0625 34.4581 31.0625 33.25Z" fill="#5b5b5b"/>
</svg>
